<?xml version="1.0" encoding="UTF-8" standalone="no"?>
<!-- Created with Inkscape (http://www.inkscape.org/) -->

<svg
   width="1920"
   height="1080"
   viewBox="0 0 507.99999 285.75"
   version="1.1"
   id="svg1"
   sodipodi:docname="wishes.svg"
   inkscape:version="1.4 (e7c3feb1, 2024-10-09)"
   inkscape:export-filename="wishesicon.png"
   inkscape:export-xdpi="300"
   inkscape:export-ydpi="300"
   xmlns:inkscape="http://www.inkscape.org/namespaces/inkscape"
   xmlns:sodipodi="http://sodipodi.sourceforge.net/DTD/sodipodi-0.dtd"
   xmlns="http://www.w3.org/2000/svg"
   xmlns:svg="http://www.w3.org/2000/svg">
  <sodipodi:namedview
     id="namedview1"
     pagecolor="#ffffff"
     bordercolor="#000000"
     borderopacity="0.25"
     inkscape:showpageshadow="2"
     inkscape:pageopacity="0.0"
     inkscape:pagecheckerboard="0"
     inkscape:deskcolor="#d1d1d1"
     inkscape:document-units="px"
     inkscape:lockguides="false"
     inkscape:zoom="0.3950664"
     inkscape:cx="683.42942"
     inkscape:cy="413.85448"
     inkscape:window-width="1280"
     inkscape:window-height="778"
     inkscape:window-x="0"
     inkscape:window-y="0"
     inkscape:window-maximized="0"
     inkscape:current-layer="layer1"
     showguides="true"
     inkscape:export-bgcolor="#ffffff00">
    <sodipodi:guide
       position="161.72581,165.71766"
       orientation="1,0"
       id="guide1"
       inkscape:locked="false" />
  </sodipodi:namedview>
  <defs
     id="defs1">
    <rect
       x="579.58846"
       y="942.56305"
       width="751.86792"
       height="49.762645"
       id="rect1" />
    <rect
       x="584.18347"
       y="960.28048"
       width="830.80446"
       height="69.362153"
       id="rect101" />
    <rect
       x="694.76818"
       y="741.60269"
       width="621.45733"
       height="134.37494"
       id="rect100" />
    <rect
       x="693.35838"
       y="741.57068"
       width="622.86713"
       height="176.42802"
       id="rect99" />
    <rect
       x="636.23083"
       y="833.95656"
       width="679.99468"
       height="119.59842"
       id="rect98" />
    <inkscape:path-effect
       effect="skeletal"
       id="path-effect95"
       is_visible="true"
       lpeversion="1"
       pattern="m 83.020989,27.473528 c 35.723861,0.42265 73.324961,28.552276 73.324961,28.552276 0,0 -38.13106,24.379109 -70.171501,24.000036 -35.72386,-0.42265 -73.32496,-28.552275 -73.32496,-28.552275 0,0 38.13106,-24.379108 70.1715,-24.000037 z"
       copytype="single_stretched"
       prop_scale="1"
       scale_y_rel="false"
       spacing="0"
       normal_offset="0"
       tang_offset="0"
       prop_units="false"
       vertical_pattern="false"
       hide_knot="false"
       fuse_tolerance="0" />
    <inkscape:path-effect
       effect="spiro"
       id="path-effect93"
       is_visible="true"
       lpeversion="1" />
    <inkscape:path-effect
       effect="skeletal"
       id="path-effect91"
       is_visible="true"
       lpeversion="1"
       pattern="m 83.020989,27.473528 c 35.723861,0.42265 73.324961,28.552276 73.324961,28.552276 0,0 -38.13106,24.379109 -70.171501,24.000036 -35.72386,-0.42265 -73.32496,-28.552275 -73.32496,-28.552275 0,0 38.13106,-24.379108 70.1715,-24.000037 z"
       copytype="single_stretched"
       prop_scale="1"
       scale_y_rel="false"
       spacing="0"
       normal_offset="0"
       tang_offset="0"
       prop_units="false"
       vertical_pattern="false"
       hide_knot="false"
       fuse_tolerance="0" />
    <inkscape:path-effect
       effect="spiro"
       id="path-effect90"
       is_visible="true"
       lpeversion="1" />
    <inkscape:path-effect
       effect="skeletal"
       id="path-effect87"
       is_visible="true"
       lpeversion="1"
       pattern="m 83.020989,27.473528 c 35.723861,0.42265 73.324961,28.552276 73.324961,28.552276 0,0 -38.13106,24.379109 -70.171501,24.000036 -35.72386,-0.42265 -73.32496,-28.552275 -73.32496,-28.552275 0,0 38.13106,-24.379108 70.1715,-24.000037 z"
       copytype="single_stretched"
       prop_scale="1"
       scale_y_rel="false"
       spacing="0"
       normal_offset="0"
       tang_offset="0"
       prop_units="false"
       vertical_pattern="false"
       hide_knot="false"
       fuse_tolerance="0" />
    <inkscape:path-effect
       effect="spiro"
       id="path-effect86"
       is_visible="true"
       lpeversion="1" />
  </defs>
  <g
     inkscape:label="Layer 1"
     inkscape:groupmode="layer"
     id="layer1">
    <path
       style="opacity:0.5;fill:#28170b;stroke-width:0.264583"
       d="M 348.25133,80.02584 H 59.832406 v 0"
       id="path3" />
    <path
       style="opacity:0.5;fill:#000000;stroke-width:0.264583;fill-opacity:0.92746115"
       d="m 59.832406,80.02584 c 337.558684,0 337.558684,0 337.558684,0"
       id="path6" />
    <path
       style="opacity:1;fill:#000000;fill-opacity:1;stroke:#ffffff;stroke-width:0.942225;stroke-dasharray:none;stroke-opacity:1"
       d="m 318.76153,56.616113 -8.3437,25.275136 64.57841,-0.89581 11.01702,-24.884376 z"
       id="path23"
       sodipodi:nodetypes="ccccc" />
    <path
       id="rect10"
       style="opacity:1;fill:#ffffff;fill-opacity:1;stroke:#000000;stroke-width:1.02877;stroke-dasharray:none;stroke-opacity:1"
       d="m 294.04073,56.5795 -52.53892,139.99695 h 29.30691 L 323.34763,56.57949 Z" />
    <path
       id="path18"
       style="opacity:1;fill:#000000;fill-opacity:1;stroke:#ffffff;stroke-width:0.997661;stroke-dasharray:none;stroke-opacity:1"
       d="m 224.07109,89.855446 -15.75649,34.116044 31.47161,72.64546 h 30.53661 z" />
    <path
       style="opacity:1;fill:#ffffff;fill-opacity:1;stroke:#000000;stroke-width:1.07115;stroke-dasharray:none;stroke-opacity:1"
       d="M 233.64033,56.439218 177.02104,196.57691 h 31.66163 L 265.23944,56.593728 h -31.59911 z"
       id="path16" />
    <path
       id="path15"
       style="opacity:1;fill:#000000;fill-opacity:1;stroke:#ffffff;stroke-width:1.07115;stroke-dasharray:none;stroke-opacity:1"
       d="m 130.95728,83.479736 45.69075,113.088704 h 31.66112 L 162.70108,83.684376 Z" />
    <path
       id="path17"
       style="display:inline;opacity:1;fill:#000000;fill-opacity:1;stroke:#ffffff;stroke-width:1.07103;stroke-dasharray:none;stroke-opacity:1"
       d="M 160.07737,83.775526 131.33029,83.488206 161.59252,158.39009 191.739,83.775526 Z"
       sodipodi:nodetypes="ccccc" />
    <path
       style="opacity:1;fill:#ffa500;fill-opacity:1;stroke:#000000;stroke-width:1.03834;stroke-dasharray:none;stroke-opacity:1"
       d="m 302.14295,113.48695 -10.12954,26.18203 58.88418,-0.74068 13.55291,-25.05905 z"
       id="path24"
       sodipodi:nodetypes="ccccc" />
    <path
       id="path25"
       style="opacity:1;fill:#c0c0c0;fill-opacity:1;stroke:#ffffff;stroke-width:1.12225;stroke-dasharray:none;stroke-opacity:0"
       d="m 351.39133,169.19461 -9.787,0.0253 -2.16524,4.30207 h 9.89139 z m -10.45311,0.0269 -10.64172,0.0274 -2.15078,4.27313 h 10.6283 z m -11.30835,0.0289 -10.87375,0.0279 -2.13527,4.24367 h 10.8598 z m -11.53935,0.03 -10.68667,0.0274 -2.1208,4.21422 h 10.67272 z m -11.35278,0.0295 -10.29601,0.0264 -2.10685,4.18579 h 10.28309 z m -10.96264,0.0279 -9.8795,0.0253 -2.13889,4.15892 h 9.91258 z m -12.32173,4.77438 -2.20917,4.29535 h 9.96684 l 2.16111,-4.29535 z m 10.58489,0 -2.16163,4.29535 h 10.28309 l 2.16111,-4.29535 z m 10.94816,0 -2.16162,4.29535 h 10.67272 l 2.16111,-4.29535 z m 11.3378,0 -2.16162,4.29535 h 10.85928 l 2.16163,-4.29535 z m 11.52488,0 -2.16162,4.29535 h 10.62829 l 2.16111,-4.29535 z m 11.29337,0 -2.16163,4.29535 h 10.02265 l 2.04587,-4.29535 z m -58.20057,4.88291 -2.20762,4.29276 h 10.02058 l 2.16059,-4.29276 z m 10.63914,0 -2.16007,4.29276 h 10.28257 l 2.16059,-4.29276 z m 10.94817,0 -2.16008,4.29276 h 10.67222 l 2.16058,-4.29276 z m 11.3378,0 -2.16008,4.29276 h 10.85929 l 2.16007,-4.29276 z m 11.52488,0 -2.16008,4.29276 h 10.62778 l 2.16059,-4.29276 z m 11.29336,0 -2.16007,4.29276 h 10.15442 l 2.04432,-4.29276 z m -58.25689,4.88704 -2.24173,4.35839 h 10.07587 l 2.19367,-4.35839 z m 10.6934,0 -2.19315,4.35839 h 10.28258 l 2.19366,-4.35839 z m 10.94817,0 -2.19315,4.35839 H 308.549 l 2.19366,-4.35839 z m 11.3378,0 -2.19314,4.35839 h 10.85927 l 2.19315,-4.35839 z m 11.52488,0 -2.19315,4.35839 h 10.62777 l 2.19367,-4.35839 z m 11.29336,0 -2.19315,4.35839 h 10.28775 l 2.07584,-4.35839 z m -58.34475,4.95267 -1.91512,3.7238 h 10.12393 l 1.87378,-3.7238 z m 10.74818,0 -1.87378,3.7238 h 10.28309 l 1.87379,-3.7238 z m 10.94817,0 -1.87378,3.7238 h 10.67273 l 1.87379,-3.7238 z m 11.33781,0 -1.87378,3.7238 h 10.85927 l 1.87379,-3.7238 z m 11.52487,0 -1.87379,3.7238 h 10.6283 l 1.87378,-3.7238 z m 11.29337,0 -1.87379,3.7238 h 10.40402 l 1.77353,-3.7238 z m -58.07345,4.31808 -1.65933,3.22668 10.15287,0.0269 1.63711,-3.25355 z m 10.79624,0 -1.63814,3.2551 10.26966,0.0269 1.65157,-3.28197 z m 10.94817,0 -1.65261,3.28404 10.65878,0.0279 1.66656,-3.31194 z m 11.33781,0 -1.6676,3.31349 10.84532,0.0284 1.68155,-3.34191 z m 11.52487,0 -1.68259,3.34346 10.61434,0.0279 1.69654,-3.37137 z m 11.29336,0 -1.69757,3.37292 10.49807,0.0279 1.61954,-3.40083 z" />
    <path
       id="path86"
       style="opacity:1;fill:#ffa500;fill-opacity:1;stroke:#000000;stroke-width:0.211833;stroke-dasharray:none;stroke-opacity:0.96063"
       d="m 160.54169,11.204167 c 0,0 -0.92786,1.044402 -2.18835,3.121107 -1.2555,2.068525 -2.83472,5.231636 -3.78101,9.379059 -0.66833,2.863431 -1.02382,6.367595 -0.22885,10.226389 0.19095,0.818586 0.4289,1.621179 0.69989,2.410614 -0.001,0.0025 -0.003,0.0044 -0.004,0.0064 -0.029,0.04494 -0.0566,0.09319 -0.0853,0.138924 -0.5771,-0.698684 -1.13532,-1.293224 -1.62704,-1.77399 -1.22309,-1.195842 -2.04701,-1.76805 -2.04701,-1.76805 0,0 0.42368,0.850368 0.9477,2.30445 0.49769,1.381002 1.02936,3.226234 1.30054,5.404849 -0.005,0.08614 -0.0153,0.170138 -0.0172,0.257442 0.007,0.49962 0.0645,0.993025 0.16172,1.479288 0.0489,1.286126 -0.0342,2.592558 -0.39507,3.760134 -0.5826,2.273511 -2.25846,4.392377 -3.96411,6.842377 -0.20533,0.276982 -0.41122,0.555753 -0.6175,0.83898 -1.61494,2.217321 -3.26963,4.705915 -4.30682,7.585477 -0.42775,1.190345 -0.70429,2.472083 -0.74037,3.801253 -0.0562,3.482828 1.82482,6.28567 3.97662,7.96449 2.22518,1.725381 4.57584,2.250268 6.12048,2.394709 1.54549,0.144521 2.37175,-0.03646 2.37175,-0.03646 0,0 -0.84837,-0.199956 -2.06693,-0.835764 -1.21093,-0.631831 -2.77348,-1.766224 -3.72046,-3.353172 -0.96132,-1.589254 -1.30879,-3.642738 -0.6999,-5.42058 0.22354,-0.716137 0.62586,-1.451989 1.09963,-2.259811 1.01186,-1.731663 2.44144,-3.424127 3.8263,-5.327916 0.43571,-0.598991 0.8712,-1.221934 1.29332,-1.871317 1.27548,-1.851209 2.324,-3.915158 2.91104,-6.109236 0.77769,0.836674 1.51788,1.637478 2.09535,2.446908 0.4075,0.569073 0.75352,1.087553 0.94578,1.592028 0.52371,1.2524 0.22489,2.699046 -0.60193,3.818599 -0.81452,1.117925 -2.15859,1.916847 -3.20013,2.361948 -1.04808,0.447887 -1.77768,0.588762 -1.77768,0.588762 0,0 0.71066,0.127499 2.03994,0.02568 1.32856,-0.101751 3.35028,-0.471341 5.26416,-1.68678 1.85079,-1.182641 3.46884,-3.157261 3.42047,-5.610738 -0.0142,-0.427051 -0.0731,-0.846653 -0.16606,-1.256856 1.78226,1.764329 3.48411,3.430733 4.89478,5.170044 0.91782,1.128341 1.71403,2.162372 2.26029,3.204138 1.42955,2.574844 1.65053,5.770899 0.87929,8.390563 -0.75253,2.61312 -2.49582,4.667907 -3.93038,5.884399 -1.44358,1.224146 -2.53057,1.707342 -2.53057,1.707342 0,0 1.1857,0.10063 3.24027,-0.4455 2.05344,-0.545836 5.07523,-1.840258 7.52059,-4.933806 2.36124,-3.007261 3.97433,-7.666617 2.72073,-12.950816 -0.49831,-2.013538 -1.30795,-3.904001 -2.29241,-5.62374 -2.3848,-4.159699 -5.47779,-7.594478 -8.42509,-10.625162 -0.37647,-0.387116 -0.75098,-0.767595 -1.12404,-1.1454 -3.14941,-3.365351 -6.14642,-6.233482 -7.7077,-9.567607 -1.1828,-2.269141 -1.77527,-5.01954 -2.12137,-7.601215 -0.46523,-3.671776 -0.35939,-6.839265 -0.1341,-9.197904 0.22178,-2.321771 0.51103,-3.704568 0.51103,-3.704568 z" />
    <text
       xml:space="preserve"
       transform="scale(0.26458333)"
       id="text98"
       style="text-align:start;writing-mode:lr-tb;direction:ltr;white-space:pre;shape-inside:url(#rect98);display:inline;opacity:1;fill:#c0c0c0;fill-opacity:1;stroke:#d4aa00;stroke-width:4.242;stroke-linejoin:miter;stroke-dasharray:none;stroke-opacity:1" />
    <text
       xml:space="preserve"
       transform="scale(0.26458333)"
       id="text99"
       style="font-style:normal;font-variant:normal;font-weight:normal;font-stretch:normal;font-size:32px;font-family:Monaco;-inkscape-font-specification:Monaco;text-align:start;writing-mode:lr-tb;direction:ltr;white-space:pre;shape-inside:url(#rect99);display:inline;opacity:1;fill:#c0c0c0;fill-opacity:1;stroke:#d4aa00;stroke-width:4.242;stroke-linejoin:miter;stroke-dasharray:none;stroke-opacity:1" />
    <text
       xml:space="preserve"
       transform="matrix(0.34992105,0,0,0.31675793,-98.037408,-18.524934)"
       id="text100"
       style="font-style:normal;font-variant:normal;font-weight:normal;font-stretch:normal;font-size:48px;font-family:Monaco;-inkscape-font-specification:Monaco;text-align:center;writing-mode:lr-tb;direction:ltr;white-space:pre;shape-inside:url(#rect100);display:none;opacity:1;fill:#000000;fill-opacity:1;stroke:#ffa500;stroke-width:2.242;stroke-linejoin:miter;stroke-dasharray:none;stroke-opacity:1"
       x="186.29297"
       y="0"><tspan
         x="823.88811"
         y="786.00352"
         id="tspan3"><tspan
           style="font-family:Poppins;-inkscape-font-specification:Poppins"
           id="tspan1">WISHES ENERGY </tspan></tspan></text>
    <text
       xml:space="preserve"
       transform="matrix(0.31517475,0,0,0.26213385,-47.149592,-10.387786)"
       id="text1"
       style="font-style:normal;font-variant:normal;font-weight:normal;font-stretch:normal;font-size:22.0921px;font-family:Poppins;-inkscape-font-specification:Poppins;text-align:center;writing-mode:lr-tb;direction:ltr;white-space:pre;shape-inside:url(#rect1);display:none;fill:#ffa500;fill-opacity:1;stroke:#000000;stroke-width:1.22979;stroke-linecap:butt;stroke-linejoin:miter;stroke-dasharray:none;stroke-dashoffset:0;paint-order:stroke fill markers"><tspan
         x="758.26212"
         y="961.89309"
         id="tspan4">ADD ENERGY TO YOUR SHOPPING LIST</tspan></text>
  </g>
</svg>
